<?xml version="1.0" standalone="no"?>
<!DOCTYPE svg PUBLIC "-//W3C//DTD SVG 20010904//EN"
 "http://www.w3.org/TR/2001/REC-SVG-20010904/DTD/svg10.dtd">
<svg version="1.0" xmlns="http://www.w3.org/2000/svg"
 width="512.000000pt" height="512.000000pt" viewBox="0 0 512.000000 512.000000"
 preserveAspectRatio="xMidYMid meet">
<metadata>
Created by potrace 1.11, written by Peter Selinger 2001-2013
</metadata>
<g transform="translate(0.000000,512.000000) scale(0.100000,-0.100000)"
fill="#000000" stroke="none">
<path d="M2570 4699 c-359 -17 -716 -118 -992 -282 -542 -322 -866 -917 -897
-1647 -21 -502 55 -904 239 -1258 279 -538 769 -855 1465 -947 141 -19 537
-22 685 -5 308 34 588 119 1003 304 l57 26 0 197 c0 109 1 361 3 561 l2 362
-44 0 c-37 0 -51 -7 -100 -48 -335 -284 -651 -394 -972 -337 -432 75 -678 392
-705 905 -18 344 71 647 244 832 99 106 235 189 366 222 352 91 663 -2 1050
-312 71 -56 83 -63 118 -60 l39 3 -1 575 c0 518 -2 576 -16 587 -36 26 -327
148 -454 190 -318 104 -694 149 -1090 132z"/>
</g>
</svg>
